<svg width="25" height="24" viewBox="0 0 25 24" fill="none" xmlns="http://www.w3.org/2000/svg">
<g clip-path="url(#clip0_545_702)">
<path d="M12.334 2.16094C15.5402 2.16094 15.9199 2.175 17.1809 2.23125C18.3527 2.28281 18.9855 2.47969 19.4074 2.64375C19.9652 2.85938 20.3684 3.12188 20.7855 3.53906C21.2074 3.96094 21.4652 4.35938 21.6809 4.91719C21.8449 5.33906 22.0418 5.97656 22.0934 7.14375C22.1496 8.40937 22.1637 8.78906 22.1637 11.9906C22.1637 15.1969 22.1496 15.5766 22.0934 16.8375C22.0418 18.0094 21.8449 18.6422 21.6809 19.0641C21.4652 19.6219 21.2027 20.025 20.7855 20.4422C20.3637 20.8641 19.9652 21.1219 19.4074 21.3375C18.9855 21.5016 18.348 21.6984 17.1809 21.75C15.9152 21.8062 15.5355 21.8203 12.334 21.8203C9.12774 21.8203 8.74805 21.8062 7.48711 21.75C6.31524 21.6984 5.68242 21.5016 5.26055 21.3375C4.70273 21.1219 4.29961 20.8594 3.88242 20.4422C3.46055 20.0203 3.20273 19.6219 2.98711 19.0641C2.82305 18.6422 2.62617 18.0047 2.57461 16.8375C2.51836 15.5719 2.5043 15.1922 2.5043 11.9906C2.5043 8.78438 2.51836 8.40469 2.57461 7.14375C2.62617 5.97187 2.82305 5.33906 2.98711 4.91719C3.20273 4.35938 3.46523 3.95625 3.88242 3.53906C4.3043 3.11719 4.70273 2.85938 5.26055 2.64375C5.68242 2.47969 6.31992 2.28281 7.48711 2.23125C8.74805 2.175 9.12774 2.16094 12.334 2.16094ZM12.334 0C9.07617 0 8.66836 0.0140625 7.38867 0.0703125C6.11367 0.126563 5.23711 0.332812 4.47773 0.628125C3.68555 0.9375 3.01523 1.34531 2.34961 2.01562C1.6793 2.68125 1.27148 3.35156 0.962109 4.13906C0.666797 4.90313 0.460547 5.775 0.404297 7.05C0.348047 8.33437 0.333984 8.74219 0.333984 12C0.333984 15.2578 0.348047 15.6656 0.404297 16.9453C0.460547 18.2203 0.666797 19.0969 0.962109 19.8563C1.27148 20.6484 1.6793 21.3188 2.34961 21.9844C3.01523 22.65 3.68555 23.0625 4.47305 23.3672C5.23711 23.6625 6.10898 23.8687 7.38398 23.925C8.66367 23.9812 9.07148 23.9953 12.3293 23.9953C15.5871 23.9953 15.9949 23.9812 17.2746 23.925C18.5496 23.8687 19.4262 23.6625 20.1855 23.3672C20.973 23.0625 21.6434 22.65 22.309 21.9844C22.9746 21.3188 23.3871 20.6484 23.6918 19.8609C23.9871 19.0969 24.1934 18.225 24.2496 16.95C24.3059 15.6703 24.3199 15.2625 24.3199 12.0047C24.3199 8.74688 24.3059 8.33906 24.2496 7.05938C24.1934 5.78438 23.9871 4.90781 23.6918 4.14844C23.3965 3.35156 22.9887 2.68125 22.3184 2.01562C21.6527 1.35 20.9824 0.9375 20.1949 0.632812C19.4309 0.3375 18.559 0.13125 17.284 0.075C15.9996 0.0140625 15.5918 0 12.334 0Z" fill="white"/>
<path d="M12.334 5.83594C8.93086 5.83594 6.16992 8.59688 6.16992 12C6.16992 15.4031 8.93086 18.1641 12.334 18.1641C15.7371 18.1641 18.498 15.4031 18.498 12C18.498 8.59688 15.7371 5.83594 12.334 5.83594ZM12.334 15.9984C10.1262 15.9984 8.33555 14.2078 8.33555 12C8.33555 9.79219 10.1262 8.00156 12.334 8.00156C14.5418 8.00156 16.3324 9.79219 16.3324 12C16.3324 14.2078 14.5418 15.9984 12.334 15.9984Z" fill="white"/>
<path d="M20.1809 5.59214C20.1809 6.38902 19.534 7.0312 18.7418 7.0312C17.9449 7.0312 17.3027 6.38433 17.3027 5.59214C17.3027 4.79526 17.9496 4.15308 18.7418 4.15308C19.534 4.15308 20.1809 4.79995 20.1809 5.59214Z" fill="white"/>
</g>
<defs>
<clipPath id="clip0_545_702">
<rect width="24" height="24" fill="white" transform="translate(0.333984)"/>
</clipPath>
</defs>
</svg>
