<svg width="25" height="20" viewBox="0 0 25 20" fill="none" xmlns="http://www.w3.org/2000/svg">
<path d="M8.21617 19.75C17.2705 19.75 22.2243 12.2467 22.2243 5.74186C22.2243 5.53092 22.2196 5.3153 22.2102 5.10436C23.1739 4.40746 24.0055 3.54425 24.666 2.5553C23.7685 2.9546 22.8157 3.21538 21.8399 3.32874C22.8673 2.71291 23.6365 1.74547 24.0051 0.605767C23.0386 1.17856 21.9816 1.58261 20.8795 1.80061C20.1369 1.01156 19.155 0.489116 18.0857 0.314051C17.0164 0.138986 15.9192 0.32105 14.9638 0.832096C14.0083 1.34314 13.2478 2.15471 12.7999 3.14131C12.3519 4.12792 12.2414 5.23462 12.4855 6.2903C10.5285 6.19209 8.61395 5.6837 6.866 4.7981C5.11804 3.91249 3.57571 2.66944 2.33898 1.14952C1.71042 2.23324 1.51807 3.51565 1.80105 4.73609C2.08402 5.95654 2.82108 7.02345 3.86242 7.71999C3.08064 7.69517 2.31599 7.48468 1.63164 7.10592V7.16686C1.63094 8.30415 2.02411 9.40659 2.74433 10.2868C3.46454 11.167 4.46734 11.7706 5.58227 11.995C4.85807 12.1931 4.098 12.222 3.36086 12.0794C3.67547 13.0574 4.28759 13.9129 5.11179 14.5263C5.93598 15.1398 6.93114 15.4806 7.95836 15.5012C6.21444 16.8711 4.06019 17.6141 1.84258 17.6106C1.4493 17.61 1.05641 17.5859 0.666016 17.5384C2.91887 18.9837 5.53955 19.7514 8.21617 19.75Z" fill="white"/>
</svg>
